<?xml version="1.0" encoding="UTF-8"?>
<svg version="1.1" xmlns="http://www.w3.org/2000/svg" width="312" height="151">
<path d="M0 0 C102.96 0 205.92 0 312 0 C312 49.83 312 99.66 312 151 C209.04 151 106.08 151 0 151 C0 101.17 0 51.34 0 0 Z " fill="#01233F" transform="translate(0,0)"/>
<path d="M0 0 C1.10359863 0.27183105 2.20719727 0.54366211 3.34423828 0.82373047 C29.00504181 7.23612382 29.00504181 7.23612382 32.0625 12.3125 C32.4367218 14.63114929 32.4367218 14.63114929 32.43481445 17.21362305 C32.44415764 18.67115242 32.44415764 18.67115242 32.45368958 20.15812683 C32.44447983 21.20293716 32.43527008 22.2477475 32.42578125 23.32421875 C32.42652901 24.94841484 32.42652901 24.94841484 32.42729187 26.60542297 C32.42495155 28.8976932 32.41522553 31.18996601 32.39868164 33.48217773 C32.37520549 36.96947583 32.37810707 40.45600292 32.38476562 43.94335938 C32.37918453 46.17448368 32.37207195 48.40560478 32.36328125 50.63671875 C32.36419266 51.67140793 32.36510406 52.70609711 32.36604309 53.7721405 C32.20051929 70.91920002 25.95878507 81.41621493 13.97265625 93.40234375 C7.65265285 99.34573615 0.42982044 103.80135089 -6.9375 108.3125 C-7.73671875 108.91449219 -8.5359375 109.51648438 -9.359375 110.13671875 C-13.09132508 111.83871417 -16.12880975 111.4907651 -19.9375 110.3125 C-23.09515465 108.74719125 -25.93313943 106.8377685 -28.8125 104.8125 C-29.60261475 104.26932129 -30.39272949 103.72614258 -31.20678711 103.16650391 C-37.21277897 98.97237206 -42.7832109 94.53168123 -47.9375 89.3125 C-48.73671875 88.53519531 -49.5359375 87.75789063 -50.359375 86.95703125 C-57.57280034 79.54323298 -63.01704339 69.93594073 -63.09863281 59.36962891 C-63.10824036 58.36493561 -63.1178479 57.36024231 -63.12774658 56.32510376 C-63.13199646 55.24071014 -63.13624634 54.15631653 -63.140625 53.0390625 C-63.14632507 51.92316742 -63.15202515 50.80727234 -63.15789795 49.65756226 C-63.16734834 47.29548084 -63.17388208 44.93338624 -63.17773438 42.57128906 C-63.18744289 38.95875049 -63.21846782 35.34678009 -63.25 31.734375 C-63.25652981 29.44010755 -63.26178037 27.14583602 -63.265625 24.8515625 C-63.2779718 23.77121735 -63.2903186 22.69087219 -63.30303955 21.57778931 C-63.27462313 12.00498268 -63.27462313 12.00498268 -59.9375 8.3125 C-54.10164054 5.58738501 -47.94971982 4.23387033 -41.6875 2.8125 C-39.82534734 2.38226062 -37.96336687 1.95127529 -36.1015625 1.51953125 C-35.21243164 1.31408691 -34.32330078 1.10864258 -33.40722656 0.89697266 C-29.41699239 -0.04733543 -25.45943058 -1.11338772 -21.5078125 -2.20703125 C-13.98618131 -3.61305045 -7.279251 -1.81405818 0 0 Z " fill="#04243F" transform="translate(78.9375,24.6875)"/>
<path d="M0 0 C1.10359863 0.27183105 2.20719727 0.54366211 3.34423828 0.82373047 C29.00504181 7.23612382 29.00504181 7.23612382 32.0625 12.3125 C32.4367218 14.63114929 32.4367218 14.63114929 32.43481445 17.21362305 C32.44415764 18.67115242 32.44415764 18.67115242 32.45368958 20.15812683 C32.44447983 21.20293716 32.43527008 22.2477475 32.42578125 23.32421875 C32.42652901 24.94841484 32.42652901 24.94841484 32.42729187 26.60542297 C32.42495155 28.8976932 32.41522553 31.18996601 32.39868164 33.48217773 C32.37520549 36.96947583 32.37810707 40.45600292 32.38476562 43.94335938 C32.37918453 46.17448368 32.37207195 48.40560478 32.36328125 50.63671875 C32.36419266 51.67140793 32.36510406 52.70609711 32.36604309 53.7721405 C32.20051929 70.91920002 25.95878507 81.41621493 13.97265625 93.40234375 C7.65265285 99.34573615 0.42982044 103.80135089 -6.9375 108.3125 C-7.73671875 108.91449219 -8.5359375 109.51648438 -9.359375 110.13671875 C-13.09132508 111.83871417 -16.12880975 111.4907651 -19.9375 110.3125 C-23.09515465 108.74719125 -25.93313943 106.8377685 -28.8125 104.8125 C-29.60261475 104.26932129 -30.39272949 103.72614258 -31.20678711 103.16650391 C-37.21277897 98.97237206 -42.7832109 94.53168123 -47.9375 89.3125 C-48.73671875 88.53519531 -49.5359375 87.75789063 -50.359375 86.95703125 C-57.57280034 79.54323298 -63.01704339 69.93594073 -63.09863281 59.36962891 C-63.10824036 58.36493561 -63.1178479 57.36024231 -63.12774658 56.32510376 C-63.13199646 55.24071014 -63.13624634 54.15631653 -63.140625 53.0390625 C-63.14632507 51.92316742 -63.15202515 50.80727234 -63.15789795 49.65756226 C-63.16734834 47.29548084 -63.17388208 44.93338624 -63.17773438 42.57128906 C-63.18744289 38.95875049 -63.21846782 35.34678009 -63.25 31.734375 C-63.25652981 29.44010755 -63.26178037 27.14583602 -63.265625 24.8515625 C-63.2779718 23.77121735 -63.2903186 22.69087219 -63.30303955 21.57778931 C-63.27462313 12.00498268 -63.27462313 12.00498268 -59.9375 8.3125 C-54.10164054 5.58738501 -47.94971982 4.23387033 -41.6875 2.8125 C-39.82534734 2.38226062 -37.96336687 1.95127529 -36.1015625 1.51953125 C-35.21243164 1.31408691 -34.32330078 1.10864258 -33.40722656 0.89697266 C-29.41699239 -0.04733543 -25.45943058 -1.11338772 -21.5078125 -2.20703125 C-13.98618131 -3.61305045 -7.279251 -1.81405818 0 0 Z M-33.375 6.625 C-34.55126953 6.93373047 -35.72753906 7.24246094 -36.93945312 7.56054688 C-47.63375135 9.60205675 -47.63375135 9.60205675 -56.9375 14.3125 C-57.05142478 15.78828954 -57.09705431 17.26943428 -57.11450195 18.74951172 C-57.12733719 19.69494843 -57.14017242 20.64038513 -57.15339661 21.61447144 C-57.16078354 22.64661774 -57.16817047 23.67876404 -57.17578125 24.7421875 C-57.183853 25.80229034 -57.19192474 26.86239319 -57.20024109 27.95462036 C-57.21410966 30.20931349 -57.22481933 32.46402787 -57.23266602 34.71875 C-57.24975484 38.13844024 -57.29360133 41.55713237 -57.33789062 44.9765625 C-57.34802819 47.16926373 -57.35654095 49.36197319 -57.36328125 51.5546875 C-57.38078934 52.56659149 -57.39829742 53.57849548 -57.41633606 54.62106323 C-57.37429407 68.66048359 -51.38560057 77.51321198 -41.94921875 87.39453125 C-37.15688052 91.96353721 -31.74181841 95.64503459 -26.25 99.3125 C-25.52490234 99.80621094 -24.79980469 100.29992187 -24.05273438 100.80859375 C-19.91570996 103.49063162 -17.02489929 105.16039988 -11.9375 104.3125 C2.8286841 98.18689918 18.04643869 84.38547936 24.1875 69.7578125 C25.58792559 65.84412313 26.18676575 62.52761039 26.17602539 58.36035156 C26.17594986 57.37963684 26.17587433 56.39892212 26.17579651 55.38848877 C26.17063522 54.33731873 26.16547394 53.28614868 26.16015625 52.203125 C26.1587413 51.12117859 26.15732635 50.03923218 26.15586853 48.92449951 C26.15027318 45.4704715 26.1377215 42.01650841 26.125 38.5625 C26.1199844 36.22005302 26.1154216 33.87760502 26.11132812 31.53515625 C26.10030528 25.7942487 26.08357174 20.05337899 26.0625 14.3125 C18.1299978 11.02405942 10.27562449 8.62271528 1.9375 6.5625 C0.71417969 6.24667969 -0.50914063 5.93085938 -1.76953125 5.60546875 C-13.60903795 2.64879194 -21.59218655 3.42671585 -33.375 6.625 Z " fill="#D4AC4C" transform="translate(78.9375,24.6875)"/>
<path d="M0 0 C4.95619806 2.86403248 8.44838295 7.06710931 10.625 12.375 C11.41090903 18.77193399 11.33392953 24.95760845 8.03515625 30.62109375 C4.74466461 34.7136997 0.59068436 37.71977188 -4.375 39.375 C-11.25208878 40.08817958 -16.97562587 40.1262077 -22.6875 35.9375 C-27.24443196 31.71811856 -29.97923502 27.49247791 -30.578125 21.26171875 C-30.71725001 14.73443691 -29.19017162 10.26582887 -25.6875 4.6875 C-18.73145081 -2.26854919 -9.08525291 -4.07979282 0 0 Z " fill="#D4AB4B" transform="translate(276.375,35.625)"/>
<path d="M0 0 C1.37703653 2.19972003 2.54796801 4.30787231 3.6875 6.625 C4.00783203 7.22957031 4.32816406 7.83414063 4.65820312 8.45703125 C6.82136533 12.78335566 7.75846442 16.1982929 7 21 C3.25128094 25.19244499 -2.36734672 27.33274058 -7.375 29.75 C-14.9751908 33.45632005 -14.9751908 33.45632005 -22.4375 37.4296875 C-23.1073291 37.80125977 -23.7771582 38.17283203 -24.46728516 38.55566406 C-26.26206278 39.56169503 -28.04927513 40.58118873 -29.8359375 41.6015625 C-33.22219879 43.09820638 -35.34277423 43.43739155 -39 43 C-43.41110442 39.00243662 -46.74936752 32.49154325 -49 27 C-48.82348633 24.99829102 -48.82348633 24.99829102 -48 23 C-46.23193359 21.63476562 -46.23193359 21.63476562 -43.8984375 20.40625 C-43.02614502 19.93856201 -42.15385254 19.47087402 -41.25512695 18.98901367 C-39.82946411 18.2519519 -39.82946411 18.2519519 -38.375 17.5 C-37.40328857 16.98606689 -36.43157715 16.47213379 -35.43041992 15.94262695 C-33.36300202 14.85143919 -31.29249964 13.76607905 -29.21923828 12.68603516 C-25.97441427 10.9865998 -22.74968615 9.25335409 -19.52734375 7.51171875 C-17.45617312 6.40281624 -15.38457127 5.2947187 -13.3125 4.1875 C-12.32749512 3.65382813 -11.34249023 3.12015625 -10.32763672 2.5703125 C-9.41127441 2.08691406 -8.49491211 1.60351562 -7.55078125 1.10546875 C-6.33902222 0.45807739 -6.33902222 0.45807739 -5.1027832 -0.20239258 C-3 -1 -3 -1 0 0 Z " fill="#D6AC4B" transform="translate(82,51)"/>
<path d="M0 0 C2.805 -0.0825 5.61 -0.165 8.5 -0.25 C9.8003418 -0.30462402 9.8003418 -0.30462402 11.12695312 -0.36035156 C18.18425917 -0.45952495 23.36548483 1.49721059 28.5 6.375 C30.89305373 12.15821317 30.72471675 17.83624748 30 24 C27.88869839 28.53538865 25.09447668 31.1653623 21 34 C18.23434618 34.92188461 16.61716298 35.11785222 13.76953125 35.09765625 C12.68442261 35.09390991 12.68442261 35.09390991 11.57739258 35.09008789 C10.20877075 35.07643188 10.20877075 35.07643188 8.8125 35.0625 C5.904375 35.041875 2.99625 35.02125 0 35 C0 23.45 0 11.9 0 0 Z " fill="#D5AC4C" transform="translate(271,86)"/>
<path d="M0 0 C2.805 -0.0825 5.61 -0.165 8.5 -0.25 C9.8003418 -0.30462402 9.8003418 -0.30462402 11.12695312 -0.36035156 C18.18425917 -0.45952495 23.36548483 1.49721059 28.5 6.375 C30.89305373 12.15821317 30.72471675 17.83624748 30 24 C27.88869839 28.53538865 25.09447668 31.1653623 21 34 C18.23434618 34.92188461 16.61716298 35.11785222 13.76953125 35.09765625 C12.68442261 35.09390991 12.68442261 35.09390991 11.57739258 35.09008789 C10.20877075 35.07643188 10.20877075 35.07643188 8.8125 35.0625 C5.904375 35.041875 2.99625 35.02125 0 35 C0 23.45 0 11.9 0 0 Z " fill="#D3AA4C" transform="translate(201,86)"/>
<path d="M0 0 C1.23556641 0.01740234 1.23556641 0.01740234 2.49609375 0.03515625 C3.32238281 0.04417969 4.14867187 0.05320313 5 0.0625 C5.63808594 0.07410156 6.27617187 0.08570313 6.93359375 0.09765625 C8.51990102 4.03396444 10.10207982 7.97192003 11.68359375 11.91015625 C12.12703125 13.01037109 12.57046875 14.11058594 13.02734375 15.24414062 C20.93359375 34.95163143 20.93359375 34.95163143 20.93359375 39.09765625 C18.29359375 39.09765625 15.65359375 39.09765625 12.93359375 39.09765625 C11.67694397 36.19165364 10.93359375 34.30161041 10.93359375 31.09765625 C5.32359375 31.09765625 -0.28640625 31.09765625 -6.06640625 31.09765625 C-6.39640625 33.07765625 -6.72640625 35.05765625 -7.06640625 37.09765625 C-7.39640625 37.75765625 -7.72640625 38.41765625 -8.06640625 39.09765625 C-11.03640625 39.09765625 -14.00640625 39.09765625 -17.06640625 39.09765625 C-13.59086215 28.97737891 -10.06189698 18.88728547 -6.19140625 8.91015625 C-5.74462524 7.75314209 -5.74462524 7.75314209 -5.28881836 6.57275391 C-2.76497153 0.13066973 -2.76497153 0.13066973 0 0 Z " fill="#D4AB4B" transform="translate(149.06640625,34.90234375)"/>
<path d="M0 0 C2.64 0 5.28 0 8 0 C8.02505615 0.79696289 8.0501123 1.59392578 8.07592773 2.41503906 C8.19198789 6.02685222 8.31466931 9.63841102 8.4375 13.25 C8.47681641 14.50425781 8.51613281 15.75851563 8.55664062 17.05078125 C8.61948242 18.85869141 8.61948242 18.85869141 8.68359375 20.703125 C8.72025146 21.81333008 8.75690918 22.92353516 8.79467773 24.06738281 C9.0205474 27.62125812 9.0205474 27.62125812 10 31 C13.56471391 32.18823797 16.2558336 32.26274852 20 32 C22.29388582 30.99683938 22.29388582 30.99683938 24 29 C24.645369 25.90989264 24.645369 25.90989264 24.609375 22.36328125 C24.64160156 21.06455078 24.67382812 19.76582031 24.70703125 18.42773438 C24.72177586 17.05599405 24.73609331 15.68424907 24.75 14.3125 C24.77815875 12.92899889 24.80808608 11.54553256 24.83984375 10.16210938 C24.91066109 6.77467979 24.96330176 3.38794333 25 0 C27.97 0 30.94 0 34 0 C34.08755672 4.35403865 34.14057969 8.70784877 34.1875 13.0625 C34.21263672 14.29162109 34.23777344 15.52074219 34.26367188 16.78710938 C34.32660474 24.56980693 34.15972876 30.1030012 29.125 36.3125 C24.4023553 40.0628355 19.65160196 40.5015022 13.79296875 40.375 C9.43923671 39.79044297 6.0079154 38.22783374 3 35 C-1.10717675 28.30821546 -0.33785701 21.19986481 -0.1875 13.5625 C-0.17396484 12.25861328 -0.16042969 10.95472656 -0.14648438 9.61132812 C-0.11127334 6.40712378 -0.06202094 3.20377895 0 0 Z " fill="#D0A94B" transform="translate(174,35)"/>
<path d="M0 0 C1.51862758 4.55588275 -0.05010951 7.73461456 -2 12 C-7.93766795 21.81739416 -19.18442803 31.92867176 -30 36 C-34.96967862 35.81421762 -37.92918916 34.04425843 -41.875 31.125 C-42.84179688 30.42632812 -43.80859375 29.72765625 -44.8046875 29.0078125 C-45.52914062 28.34523438 -46.25359375 27.68265625 -47 27 C-47 26.01 -47 25.02 -47 24 C-31.60066701 15.40679196 -16.1482422 7.11617453 0 0 Z " fill="#D5AB4C" transform="translate(96,86)"/>
<path d="M0 0 C2.64 0 5.28 0 8 0 C9.55553555 4.01741605 11.10352406 8.03763595 12.64477539 12.06054688 C13.16943416 13.42688952 13.6960982 14.792464 14.22485352 16.15722656 C14.98730588 18.12623645 15.74235226 20.09795425 16.49609375 22.0703125 C16.95169678 23.25383301 17.4072998 24.43735352 17.87670898 25.65673828 C18.92907095 28.7888932 19.56256566 31.73121205 20 35 C17.69 35 15.38 35 13 35 C12.34 32.69 11.68 30.38 11 28 C6.05 28 1.1 28 -4 28 C-4.33 29.65 -4.66 31.3 -5 33 C-5.33 33.66 -5.66 34.32 -6 35 C-8.31 35 -10.62 35 -13 35 C-11.89436354 30.32210321 -10.27167655 25.84583541 -8.6875 21.3125 C-8.24374023 20.02182617 -8.24374023 20.02182617 -7.79101562 18.70507812 C-5.55622496 12.29996535 -3.03526679 6.07053358 0 0 Z " fill="#D1A94C" transform="translate(246,86)"/>
<path d="M0 0 C2.64 0 5.28 0 8 0 C11.28925398 7.63802728 14.33559064 15.36084496 17.3125 23.125 C17.67408203 24.06174561 18.03566406 24.99849121 18.40820312 25.96362305 C18.74400391 26.84445557 19.07980469 27.72528809 19.42578125 28.6328125 C19.72911377 29.42574707 20.03244629 30.21868164 20.3449707 31.03564453 C21 33 21 33 21 35 C18.69 35 16.38 35 14 35 C12.5393715 32.35261084 12 31.10551666 12 28 C7.05 28.33 2.1 28.66 -3 29 C-3.66 30.98 -4.32 32.96 -5 35 C-7.64 35 -10.28 35 -13 35 C-4.48087538 10.01734161 -4.48087538 10.01734161 0 0 Z " fill="#D2A94C" transform="translate(175,86)"/>
<path d="M0 0 C4.33058376 2.7839467 4.33058376 2.7839467 5.625 4.6875 C5.3125 6.875 5.3125 6.875 4.625 8.6875 C0.07954545 9.06628788 0.07954545 9.06628788 -2.25 7.125 C-4.46835736 5.30058329 -4.46835736 5.30058329 -8.125 6 C-9.1975 6.226875 -10.27 6.45375 -11.375 6.6875 C-11.705 8.0075 -12.035 9.3275 -12.375 10.6875 C-7.9025619 13.15911053 -3.57340472 14.54226751 1.35546875 15.74609375 C4.16630451 16.91203423 5.12617286 18.06216583 6.625 20.6875 C7.13697712 25.29529404 7.27940831 27.52970068 5 31.5625 C0.72071493 35.39133401 -3.84203375 36.09457271 -9.41796875 35.9453125 C-13.29901591 35.43403683 -16.20043716 33.58799818 -19.25 31.25 C-20.375 29.6875 -20.375 29.6875 -20.375 25.6875 C-17.625 24.9375 -17.625 24.9375 -14.375 24.6875 C-13.04166667 26.02083333 -11.70833333 27.35416667 -10.375 28.6875 C-6.79071853 29.18781206 -6.79071853 29.18781206 -3.375 28.6875 C-2.715 28.0275 -2.055 27.3675 -1.375 26.6875 C-1.375 25.3675 -1.375 24.0475 -1.375 22.6875 C-1.931875 22.51734375 -2.48875 22.3471875 -3.0625 22.171875 C-17.05650209 17.7278338 -17.05650209 17.7278338 -19.609375 13.77734375 C-20.80533096 10.51287212 -20.14880116 8.02079732 -19.375 4.6875 C-15.22376476 -2.62658115 -7.19147174 -2.79668346 0 0 Z " fill="#D2AA4C" transform="translate(152.375,86.3125)"/>
<path d="M0 0 C3.9401305 2.3983403 5.85442197 4.52183134 7 9 C7.47553221 14.23085429 6.92947164 17.60579253 4 22 C0.77010591 24.78945399 -1.2663318 25.89519026 -5.5 26.5 C-10.62182097 25.76831129 -13.53931703 23.70413013 -16.875 19.8125 C-18.48186346 15.79534134 -18.66970107 12.26652255 -18 8 C-16.19735922 4.25605377 -14.63417235 2.44680324 -11.25 0.0625 C-7.14087256 -1.28086858 -4.12510667 -1.25029006 0 0 Z " fill="#062540" transform="translate(272,42)"/>
<path d="M0 0 C10.23 0 20.46 0 31 0 C31 2.31 31 4.62 31 7 C27.37 7 23.74 7 20 7 C20 17.56 20 28.12 20 39 C17.03 39 14.06 39 11 39 C11 28.44 11 17.88 11 7 C7.37 7 3.74 7 0 7 C0 4.69 0 2.38 0 0 Z " fill="#D1A84B" transform="translate(213,35)"/>
<path d="M0 0 C0.495 1.98 0.495 1.98 1 4 C0.27635254 4.3717334 -0.44729492 4.7434668 -1.19287109 5.12646484 C-4.58846822 6.87297185 -7.98219625 8.62307507 -11.375 10.375 C-11.98625732 10.69035706 -12.59751465 11.00571411 -13.22729492 11.33062744 C-21.81753907 15.76722592 -30.33975694 20.30164971 -38.70458984 25.15380859 C-43.68572669 28 -43.68572669 28 -47 28 C-46.91015625 24.77734375 -46.91015625 24.77734375 -46 21 C-43.75149914 19.107018 -41.98416563 17.90283358 -39.4375 16.5625 C-38.77290771 16.18907471 -38.10831543 15.81564941 -37.42358398 15.4309082 C-35.29890403 14.25290473 -33.15580545 13.11993658 -31 12 C-30.29133789 11.63165039 -29.58267578 11.26330078 -28.85253906 10.88378906 C-24.89529436 8.84608979 -20.91417499 6.86303962 -16.90283203 4.93408203 C-15.55534236 4.27261225 -14.21863182 3.58897249 -12.89013672 2.89013672 C-11.8443042 2.34317139 -11.8443042 2.34317139 -10.77734375 1.78515625 C-10.14948975 1.45008057 -9.52163574 1.11500488 -8.87475586 0.76977539 C-5.82921283 -0.48072561 -3.24967658 -0.27080638 0 0 Z " fill="#D2AA4B" transform="translate(76,41)"/>
<path d="M0 0 C10 0 10 0 13.0625 1.875 C16.61958459 5.77631858 16.38902982 9.17154932 16.35546875 14.29296875 C16 17 16 17 13.6875 20.125 C8.67376588 23.62295404 6.75528142 23 0 23 C0 15.41 0 7.82 0 0 Z " fill="#03233F" transform="translate(278,92)"/>
<path d="M0 0 C10 0 10 0 13.0625 1.875 C16.49201642 5.6364051 16.27879845 8.59501969 16.21484375 13.51953125 C15.93349493 16.76783129 15.19256889 18.58061364 13 21 C8.48454079 23.70927553 5.73645874 23 0 23 C0 15.41 0 7.82 0 0 Z " fill="#04233F" transform="translate(208,92)"/>
<path d="M0 0 C2.38125464 2.38125464 3.00186241 4.33857567 4.125 7.5 C4.65480469 8.96953125 4.65480469 8.96953125 5.1953125 10.46875 C6 13 6 13 6 15 C2.37 15 -1.26 15 -5 15 C-3.91463082 9.48966417 -2.78609311 4.93898323 0 0 Z " fill="#1C2F40" transform="translate(151,45)"/>
<path d="M0 0 C2 3 2 3 1.875 5.5625 C1 8 1 8 -0.8125 9.3125 C-3 10 -3 10 -7 10 C-8.33454536 7.8019253 -9.02787435 6.47386397 -8.875 3.875 C-8 2 -8 2 -6.1875 0.75 C-4 0 -4 0 0 0 Z " fill="#092540" transform="translate(51,75)"/>
<path d="M0 0 C2.34914492 2.34914492 2.73140357 3.95679446 3.625 7.125 C3.88539063 8.03507812 4.14578125 8.94515625 4.4140625 9.8828125 C4.70410156 10.93082031 4.70410156 10.93082031 5 12 C1.7 12 -1.6 12 -5 12 C-4.54965877 10.37276701 -4.08944646 8.74826336 -3.625 7.125 C-3.36976563 6.22007813 -3.11453125 5.31515625 -2.8515625 4.3828125 C-2 2 -2 2 0 0 Z " fill="#132A40" transform="translate(179,96)"/>
<path d="M0 0 C2.18614424 2.18614424 2.68256535 3.53879949 3.625 6.4375 C3.88539063 7.21996094 4.14578125 8.00242187 4.4140625 8.80859375 C5 11 5 11 5 14 C2.03 14 -0.94 14 -4 14 C-2.68 9.38 -1.36 4.76 0 0 Z " fill="#102740" transform="translate(249,94)"/>
</svg>
